<svg width="60" height="60" viewBox="0 0 60 60" fill="none" xmlns="http://www.w3.org/2000/svg">
<g clip-path="url(#clip0_1_2)">
<path d="M54 0H6C2.68629 0 0 2.68629 0 6V54C0 57.3137 2.68629 60 6 60H54C57.3137 60 60 57.3137 60 54V6C60 2.68629 57.3137 0 54 0Z" fill="#FFD43B"/>
<path d="M46.6648 29.7835C46.7655 22.7246 42.6617 16.5655 36.4808 14.0769L33.8298 22.863H37.8557L29.1327 39.173V26.8707H28.8448L24.0515 26.8702L25.8782 13.3333C18.4051 15.0703 13.222 21.8605 13.3351 29.7835C13.2021 39.095 20.3823 46.847 30.0002 46.6635C39.6177 46.847 46.7977 39.095 46.6648 29.7835Z" fill="#464646"/>
<path d="M46.6648 29.7835C46.7655 22.7246 42.6617 16.5655 36.4808 14.0769L33.8298 22.863H37.8557L29.1327 39.173V26.8707H28.8448L24.0515 26.8702L25.8782 13.3333C18.4051 15.0703 13.222 21.8605 13.3351 29.7835C13.2021 39.095 20.3823 46.847 30.0002 46.6635C39.6177 46.847 46.7977 39.095 46.6648 29.7835Z" fill="#464646"/>
</g>
<defs>
<clipPath id="clip0_1_2">
<rect width="60" height="60" fill="white"/>
</clipPath>
</defs>
</svg>
